/* XPM */
static char * tiny_riscv_logo_xpm[] = {
"16 16 8 1",
" 	c #283374",
".	c #7B809B",
"+	c #AAACBC",
"@	c #F9B115",
"#	c #F9BE65",
"$	c #F9C782",
"%	c #FCD8B0",
"&	c #FAFBF8",
"&&&&&&$@@@@@@@@&",
"&&&&&&&$@@@@@@@&",
"....+&&&@@@@@@@&",
"     .&&$@@@@@@&",
"      &&%@@@@@%&",
"      &&$@@@@#&&",
"     +&&#@@@@&&&",
" +++&&&%@@@@%&&&",
" &&&&&%@@@@$&&+&",
" .&&&#@@@@@&&& &",
"  +&&%@@@@%&&. &",
"   +&&$@@$&&+  &",
"    &&&$#&&+   &",
"     &&&&&&    &",
"     .&&&&.    &",
"&&&&&&&&&&&&&&&&"};
