/* XPM */
static char * font8x8_xpm[] = {
"512 32 2 1",
" 	c #000000",
".	c #FFFFFF",
"         ......  ......  .. ..     .      ...      .            ........        ........    ....  ....    ...... ........  ..  ..             .    ..    ..  ..  .......  .....            ..      ..      ..                                                             ..     .. ..   .. ..    ..              ...    ..        ..    ..                                                  ..  .....    ..     ....    ....      ...  ......    ...   ......   ....    ....                      ..            ..      ....   ",
"        .      ................   ...    .....     .            ........  ....  ..    ..     ... ..  ..   ..  .. ..   .. . .. . ...         ...   ....   ..  .. .. .. .. ..   ..          ....    ....     ..      ..     ..              .  .     ..   ........         ....    .. ..   .. ..   .....  ..   ..  .. ..   ..       ..      ..     ..  ..   ..                                ..  ..   ..  ...    ..  ..  ..  ..    ....  ..       ..     ..  ..  ..  ..  ..  ..    ..      ..      ..              ..    ..  ..  ",
"        . .  . ... .. .........  .....    ...     ...      ..   ...  ... ..  .. .  ..  .    .... ..  ..   ...... .......  ....  .....     .....  ......  ..  .. .. .. ..  ...            ......  ......    ..       ..   ..     ..       ..  ..   ....  ........         ....    .. ..  ....... ..      ..  ..    ...   ..       ..        ..     ....    ..                               ..   ..  ...   ..        ..      ..   .. ..  .....   ..          ..  ..  ..  ..  ..    ..      ..     ..     ......     ..       ..  ",
"        .      ................ ....... .......  .....    ....  ..    .. .    . . .... . ..... . ..  ..   ..     ..   .....  .......... .......    ..    ..  ..  .... .. .. ..             ..      ..      ..   ....... ....... ..      ........ ......  ......           ..             .. ..   ....      ..    ... ..          ..        ..   ..............          ......            ..    .. ....   ..      ...     ...   ..  ..      ..  .....      ..    ....    .....                  ..                  ..     ..   ",
"        . .... ...    .. .....   .....  ....... .......   ....  ..    .. .    . . .... ...  ..    ....    ..     ..   .....  ........     .....    ..    ..  ..    .. .. .. ..   ......  ......    ..    ......     ..   ..     ..       ..  .. ........  ....            ..            .......     ..    ..    .. ...           ..        ..     ....    ..                             ..     .... ..   ..     ..         ..  .......     ..  ..  ..    ..    ..  ..      ..                   ..                ..     ..    ",
"        .  ..  ....  ...  ...     ...    .....   .....     ..   ...  ... ..  .. .  ..  ...  ..     ..    ...     ..  ...  ....  ...         ...  ......            .. ..  ...    ......   ....     ..     ....     ..     ..    .......   .  .  ........   ..                            .. ..  .....    ..  .. ..  ..            ..      ..     ..  ..   ..      ..              ..    ..      ...  ..   ..    ..  ..  ..  ..      ..  ..  ..  ..  ..    ..    ..  ..     ..     ..      ..      ..    ......    ..            ",
"        .      .........   .       .      ...     ...           ........  ....  ..    ....  ..   ...... ....    ...  ..  . .. . .             .   ....   ..  ..    .. ....  ..   ......    ..      ..      ..                                                             ..             .. ..    ..    ..   ..  ... ..            ..    ..                       ..              ..    .        .....  ......  ......   ....      ....  ....    ....     ..     ....    ...      ..      ..       ..            ..       ..    ",
"         ......  ......                  .....   .....          ........        ........ ....      ..   ...     ..      .  ..  .                   ..                    ....           ........                                                                                                                                                                 ..                                                                                                                      ..                                     ",
" .....    ..    ......    ....  .....   ....... .......   ....  ..  ..   ....      .... ...  .. ....    ..   .. ..   ..   ...   ......   ....   ......   ....   ......  ..  ..  ..  ..  ..   .. ..   .. ..  ..  .......  ....   ..       ....      .              ..            ...                ...            ...           ...       ..        ..  ...      ...                                                               .                                                       ...     ..   ...      ... ..         ",
" .   ..  ....    ..  ..  ..  ..  .. ..   ..   .  ..   .  ..  .. ..  ..    ..        ..   ..  ..  ..     ... ... ...  ..  .. ..   ..  .. ..  ..   ..  .. ..  ..  . .. .  ..  ..  ..  ..  ..   .. ..   .. ..  ..  ..   ..  ..      ..        ..     ...             ..             ..                 ..           .. ..           ..                      ..       ..                                                              ..                                                      ..       ..     ..    .. ...     .    ",
" . .... ..  ..   ..  .. ..       ..  ..  .. .    .. .   ..      ..  ..    ..        ..   .. ..   ..     ....... .... .. ..   ..  ..  .. ..  ..   ..  .. ...       ..    ..  ..  ..  ..  ..   ..  .. ..  ..  ..  .   ..   ..       ..       ..    .. ..             ..    ....    ..      ....       ..   ....    ..      ... ..  .. ..   ...        ..   ..  ..   ..    ..  ..  .....    ....   .. ...   ... .. .. ...   .....   .....  ..  ..  ..  ..  ..   .. ..   .. ..  ..  ......    ..       ..     ..              ...   ",
" . .... ..  ..   .....  ..       ..  ..  ....    ....   ..      ......    ..        ..   ....    ..     ....... .. .... ..   ..  .....  ..  ..   .....   ...      ..    ..  ..  ..  ..  .. . ..   ...    ....      ..    ..        ..      ..   ..   ..                     ..   .....  ..  ..   .....  ..  ..  ....    ..  ..   ... ..   ..        ..   .. ..    ..    ....... ..  ..  ..  ..   ..  .. ..  ..   ... .. ..        ..    ..  ..  ..  ..  .. . ..  .. ..  ..  ..  .  ..   ...                ...           .. ..  ",
" . .... ......   ..  .. ..       ..  ..  .. .    .. .   ..  ... ..  ..    ..    ..  ..   .. ..   ..   . .. . .. ..  ... ..   ..  ..     .. ...   .. ..     ...    ..    ..  ..  ..  ..  .......   ...     ..      ..  .  ..         ..     ..                            .....   ..  .. ..      ..  ..  ......   ..     ..  ..   ..  ..   ..        ..   ....     ..    ....... ..  ..  ..  ..   ..  .. ..  ..   ..  ..  ....     ..    ..  ..  ..  ..  .......   ...   ..  ..    ..      ..       ..     ..            ..   .. ",
" .      ..  ..   ..  ..  ..  ..  .. ..   ..   .  ..      ..  .. ..  ..    ..    ..  ..   ..  ..  ..  .. ..   .. ..   ..  .. ..   ..      ....    ..  .. ..  ..    ..    ..  ..   ....   ... ...  .. ..    ..     ..  ..  ..          ..    ..                           ..  ..   ..  .. ..  ..  ..  ..  ..       ..      .....   ..  ..   ..    ..  ..   .. ..    ..    .. . .. ..  ..  ..  ..   .....   .....   ..         ..    .. .  ..  ..   ....   .......  .. ..   .....   ..  .    ..       ..     ..            ..   .. ",
" ....   ..  ..  ......    ....  .....   ....... ....      ..... ..  ..   ....    ....   ...  .. ....... ..   .. ..   ..   ...   ....       ...  ...  ..  ....    ....   ......    ..    ..   .. ..   ..  ....   .......  ....         .  ....                            ... .. .. ...   ....    ... ..  ....   ....        ..  ...  ..  ....   ..  ..  ...  ..  ....   ..   .. ..  ..   ....    ..         ..  ....    .....      ..    ... ..   ..     .. ..  ..   ..     ..  ......     ...     ..   ...             ....... ",
"                                                                                                                                                                                                                                                        ........                                                        .....                    ....                                           ....       ....                                                         .....                                                   ",
" ....              ...   ...... ..  ..  ...       ..             ...... ..  ..  ...     ..  ..   .....  ...     ..   ..   ..       ...            .....  ....                    ....                   ..    ....  ..     ..     ...   ..  ..  .....       ...    ...    ...                           ......    ....    ...     ..                    ..    ....    ..   ..                     .   .  . . . ... .. ..   ..      ..      ..     .. ..                   .. ..   .. ..           .. ..   .. ..    ..           ",
" .  ..  ..  ..          ..    ..                  ..            ..    ..                        ..   ..           ...     ..                     .. ..  ..  ..  ..  ..  ...     ..  ..  ...     ..  ..     ..              ..    .. ..  ..  ..  ..  ..     .. ..                   ...     ...  .....            .. ..   .. ..                          ..   .. ..   ..    ..     ..  ....  ..  .   .   . . . .  ... ...   ..      ..      ..     .. ..                   .. ..   .. ..           .. ..   .. ..    ..           ",
" .               ....     ....   ....    ....    ....    ....     ....   ....    ....    ...      ...    ...     .. ..          ......   .........  ..                                                    ....  ..  ..   ......  ..  .   ....   ..  ..     ..    ....    ...                            ..  ..   .. ..   .. ..    ..                    ..  ..  ..  ..           ..  ..  ..  ..   .   .  . . . ... .. ..   ..      ..   .....     .. ..         .....   .... ..   .. .. ....... .... ..   .. .. .....           ",
" .  ..  ..  ..  ..  ..       ..     ..      ..      ..  ..       ..  .. ..  ..  ..  ..    ..       ..     ..    ..   ..  ....    ..         ..  .......  ....    ....    ....   ..  ..  ..  ..  ..  ..   ..  .. ..  ..  ..      ....    ......  ..... .   ....      ..    ..     ....   ..  ..  .....   ... ..    .....   ...    ..     ......  ......  .. .... .. .. ..   ..   ..  ..    ..  ...   .   . . . . ... ...    ..      ..      ..     .. ..            ..        ..   .. ..      ..      ..   .. ..    ..           ",
" ....   ..  ..  ......    .....  .....   .....   .....  ..       ...... ......  ......    ..       ..     ..    ....... ..  ..   ....    .........  ..  ..  ..  ..  ..  ..  ..  ..  ..  ..  ..  ..  ..   ..  .. ..  ..  ..       ..       ..    ..   ..    ..    .....    ..    ..  ..  ..  ..  ..  ..  ......                  ..      ..          ..    ..  ..  .. ...   ..    ..  ..  ..  ..   .   .  . . . ... .. ..   ..   .....   .....   .... .. ....... .....   .... ..   .. .. .... .. ....... ....... .....   .....   ",
"   ..   ..  ..  ..       ..  .. ..  ..  ..  ..  ..  ..   ....    ..     ..      ..        ..       ..     ..    ..   .. ......   ..     ..  ..  ..  ..  ..  ..  ..  ..  ..  ..  ..  ..  ..  ..   .....    ....  ..  ..   ...... ...  .. ......  ..  ....   ..   ..  ..    ..    ..  ..  ..  ..  ..  ..  .. ...   ......  .....  ..  ..  ..          ..   ..  ..  .. ....   ..     ..  ....  ..  .   .   . . . .  ... ...   ..      ..      ..     .. ..   .. ..    ..     .. ..   .. ..   .. ..                            ..   ",
"    ..   ......  ....     ...... ......  ......  ......     ..    ....   ....    ....    ....     ....   ....   ..   .. ..  ..  ......   .........  ...  ....    ....    ....    ......  ......     ..     ..    ....      ..   ......    ..    ..   .. .. ..    ......  ....    ....    ...... ..  ..  ..  ..                   ....                   ..  ..  ..  ....   ..                     .   .  . . . ... .. ..   ..      ..      ..     .. ..   .. ..    ..     .. ..   .. ..   .. ..                            ..   ",
" ....                                                     ...                                                                                                                                   .....                      ..             ..    ..   ... ...                                                                                                ....      ..                        .   .   . . . . ... ...    ..      ..      ..     .. ..   .. ..    ..     .. ..   .. ..   .. ..                            ..   ",
"   ..      ..              ..              ..      ..     .. ..   .. ..           .. ..           .. ..           .. ..    ..     .. ..                   .. ..    ..                     .. ..    ..      ..           ........        ....        ............                                ......                          ......    ...     ...      ...               ..   ...    ....             ..     ..        ..       ...    ..     ..              ...                       .... ....    ...                    ",
"   ..      ..              ..              ..      ..     .. ..   .. ..           .. ..           .. ..           .. ..    ..     .. ..                   .. ..    ..                     .. ..    ..      ..           ........        ....        ............         ....   ......  ....... ..  ..           ..  ..  ... ..   ..     .. ..   .. ..    ..                ..   ..     ..  ..  ......    ..      ..      ..       .. ..   ..     ..     ... ..  .. ..                      ..   .. ..     ..                   ",
"   ..      ..              ..              ..      .....  .. ..   .. ...  .......... ...........  .. ............... ...........  .. .. ........          .. ..    .....   .....          .. .. ........   ..           ........        ....        ............ ... .. ..  ..  ..  ..   .. ..   ..      ......  ..  .. .. ...   ....   ..   .. ..   ..    ..    ......  ...... ..      ..  ..          ......     ..    ..        .. ..   ..           .. ...   .. ..                      ..   .. ..    ..      ....          ",
"   ..      ..              ..              ..      ..     .. ..   ..      ..                      ..                              .. ..                   .. ..    ..      ..             .. ..    ..      ..           ........        ....        .............. ...  .....   ..       .. ..    ..    .. ..    ..  ..    ..   ..  ..  ....... ..   ..  .....  .. .. .... .. .......   ..  ..  ......    ..      ..      ..       ..      ..   ......            ...      ..               ..   .. ..   ..       ....          ",
"   .....................   .....................   .....  .. ...  ......  .. ............... ...  .. ............... ...................................  ......   .....   .....  ...........................      .........................        ....        ..  .   ..  ..  ..       .. ..   ..     .. ..    ..  ..    ..   ..  ..  ..   ..  .. ..  ..  ..  .. .. .... .. ....      ..  ..            ..     ..        ..      ..      ..            ... ..            ..      ..   ... ..   .. ..   ....     ....          ",
"                   ..      ..              ..      ..     .. ..           .. ..           .. ..   .. ..           .. ..                    ..     .. ..                    ..     .. ..   .. ..    ..              ..   ....................        ....        .. ...  .....   ..       .. ..  ..  ..  .. ..    .....     ..    ....    .. ..   .. ..  ..  ..   ......  ......  ..     ..  ..  ......                             ..   .. ..     ..    .. ...                           .. ..                    ....          ",
"                   ..      ..              ..      ..     .. ..           .. ..           .. ..   .. ..           .. ..                    ..     .. ..                    ..     .. ..   .. ..    ..              ..   ....................        ....         ... .. ..      ..       .. ..  ......   ...     ..        ..     ..      ...   ... ...  ....            ..       ...   ..  ..          ......  ......  ......     ..   .. ..     ..                                      ....                                  ",
"                   ..      ..              ..      ..     .. ..           .. ..           .. ..   .. ..           .. ..                    ..     .. ..                    ..     .. ..   .. ..    ..              ..   ....................        ....                ..                                      ..              ......                                  ..                                                         ..    ...                                               ...                                  "};
