/* XPM */
static char * pico8_font_xpm[] = {
"128 128 2 1",
" 	c #020408",
"*	c #FFF1E8",
"                                                                                                                                ",
"                                                                                                                                ",
"                                                                                                                                ",
"                                                                                                                                ",
"                                                                                                                                ",
"                                                                                                                                ",
"                                                                                                                                ",
"                                                                                                                                ",
"***                                               *     *       ***             * *                             * *      *      ",
"***     ***     ***     * *     * *     * *      **     **      *         *     ***                             * *     * *     ",
"***     ***     * *      *              * *     ***     ***     *         *      *       *                               *      ",
"***     ***     ***     * *     * *     * *      **     **      *         *     ***             *       **                      ",
"***                                               *     *               ***      *               *      **                      ",
"                                                                                                                                ",
"                                                                                                                                ",
"                                                                                                                                ",
"         *      * *     * *     ***     * *     **       *       *       *      * *                                       *     ",
"         *      * *     ***     **        *     **      *       *         *      *       *                               *      ",
"         *              * *      **      *      **              *         *     ***     ***             ***              *      ",
"                        ***     ***     *       * *             *         *      *       *       *                       *      ",
"         *              * *      *      * *     ***              *       *      * *             *                *      *       ",
"                                                                                                                                ",
"                                                                                                                                ",
"                                                                                                                                ",
"***     **      ***     ***     * *     ***     *       ***     ***     ***                       *             *       ***     ",
"* *      *        *       *     * *     *       *         *     * *     * *      *       *       *      ***      *        *     ",
"* *      *      ***      **     ***     ***     ***       *     ***     ***                     *                 *      **     ",
"* *      *      *         *       *       *     * *       *     * *       *      *       *       *      ***      *              ",
"***     ***     ***     ***       *     ***     ***       *     ***       *             *         *             *        *      ",
"                                                                                                                                ",
"                                                                                                                                ",
"                                                                                                                                ",
" *                                                                                                                              ",
"* *      **     **       **     **      ***     ***      **     * *     ***     ***     * *     *       ***     **       **     ",
"* *     * *     **      *       * *     **      **      *       * *      *       *      **      *       ***     * *     * *     ",
"*       ***     * *     *       * *     *       *       * *     ***      *       *      * *     *       * *     * *     * *     ",
" **     * *     ***      **     **       **     *       ***     * *     ***     **      * *      **     * *     * *     **      ",
"                                                                                                                                ",
"                                                                                                                                ",
"                                                                                                                                ",
"                                                                                        **      *        **      *              ",
" **      *      **       **     ***     * *     * *     * *     * *     * *     ***     *        *        *     * *             ",
"* *     * *     * *     *        *      * *     * *     * *      *      ***       *     *        *        *                     ",
"***     **      **        *      *      * *     ***     ***      *        *     *       *        *        *                     ",
"*        **     * *     **       *       **      *      ***     * *     **      ***     **        *      **             ***     ",
"                                                                                                                                ",
"                                                                                                                                ",
"                                                                                                                                ",
" *      ***     ***      **     **      ***     ***      **     * *     ***     ***     * *     *       ***     **       **     ",
"  *     * *     * *     *       * *     *       *       *       * *      *       *      * *     *       ***     * *     * *     ",
"        ***     **      *       * *     **      **      *       ***      *       *      **      *       * *     * *     * *     ",
"        * *     * *     *       * *     *       *       * *     * *      *       *      * *     *       * *     * *     * *     ",
"        * *     ***      **     ***     ***     *       ***     * *     ***     **      * *     ***     * *     * *     **      ",
"                                                                                                                                ",
"                                                                                                                                ",
"                                                                                                                                ",
"***      *      ***      **     ***     * *     * *     * *     * *     * *     ***      **      *      **                      ",
"* *     * *     * *     *        *      * *     * *     * *     * *     * *       *      *       *       *        *      *      ",
"***     * *     **      ***      *      * *     * *     * *      *      ***      *      **       *       **     ***     * *     ",
"*       **      * *       *      *      * *     ***     ***     * *       *     *        *       *       *      *        *      ",
"*        **     * *     **       *       **      *      ***     * *     ***     ***      **      *      **                      ",
"                                                                                                                                ",
"                                                                                                                                ",
"                                                                                                                                ",
"******* * * * * *     *  *****  *   *     *       ***    ** **    ***     ***     ***    *****  *******    ***   *****     *    ",
"*******  * * *  ******* **   **   *   *   ****   *** *   *****   ** **    ***    *****  ***  ** * *** *    *    **   **   ***   ",
"******* * * * * * *** * **   ** *   *     ***    *****   *****  *** ***  *****  ******* **   ** *******    *    ** * **  *****  ",
"*******  * * *  * *** * *** ***   *   *  ****    *****    ***    ** **    ***    * * *  ***  ** *     *  ***    **   **   ***   ",
"******* * * * *  *****   *****  *   *       *     ***      *      ***     * *    * ***   *****  *******  ***     *****     *    ",
"                                                                                                                                ",
"                                                                                                                                ",
"                                                                                                                                ",
"         *****     *     *****   *****                   *****  ******* * * * *  ***    *         ***      *     ***  *  *   *  ",
"        **  ***   ***     ***   *** *** * *     *   *   ** * **         * * * *   *     *   *            ****     *     ***** * ",
"* * * * **   ** *******    *    **   **  *  * *  * * *  *** *** ******* * * * *  ****   *    *   *****     *     *****   *  *   ",
"        **  ***  *****    ***   **   **      *    *   * ** * **         * * * * * ** *  * *  *       *    *  *  * *   *  *  *   ",
"         *****   *   *   *****   *****                   *****  ******* * * * *  **  *   *         **    * **    **  *   * *    ",
"                                                                                                                                ",
"                                                                                                                                ",
"                                                                                                                                ",
"  ***       **   *   *   ***     *****   *         *     *  *     ****    *       *       ****   *****     *     *   **  * **** ",
" *****    **     * ****     *      *     *       *****   *****      *    ***    ******  **    *     *      ***  ****     *    * ",
"  ***    *       *   *           ***     *         *     *  *    ******   * **    ***         *    *      *      *   *   *      ",
" *        **     *   *   *      *        *   *    **     *         *     *          **       *     *     *      *  ***   * *    ",
"  ***       **   *  *     ****   ****     ***      *      ***       ***  *  ***  ****      **       *     ****     ** *  *  *** ",
"                                                                                                                                ",
"                                                                                                                                ",
"                                                                                                                                ",
"*  *     *  **    ****   *  *   **   *    **            * ****    ***    **       *  *   * *     ****     *  *   * ***     *    ",
" *****  ** *  *  * *  *  * ***   *   **           **    *   *    *****    *  *   ***  *   ****    *      ******  ** * *    ***  ",
"** *  *  **   * *  *  *  *  *    *   *     *     *  *   * ****     *     ******   *      * ** *  ****     *  **  *  * *    *    ",
"* ** ** **   ** *  *  *  * ***   *   *   * * *  *    *  *  **    ****    **  *   **   *  **   *   *   *    *        **   ****   ",
" **  **  *   **  **  *   * ** *   ***   * **  *       * * ** **   ** *      *     ****      **     ***     *       *     **  *  ",
"                                                                                                                                ",
"                                                                                                                                ",
"                                                                                                                                ",
"   *     *        ****    *       ****   *  **   ***     *                                       *****      **     *      ***   ",
" *       *   *      *    ** **      *   ** *  *   *  **  ***             * *      *      *           *   ***     *****     *    ",
" *****   *   *    *****   ** *    *****  **   *   ***    *  *    ***    *****   ****     ***      * *      *         *     *    ",
"     *    *  *   *  ***  **  *   *    * **   *     * *  *   * *     *    * **   * * *    *        *        *        *      *    ",
"  ***       *       **    *  **     **   *  *      **** *   **     *      *     * **    * ***    *         *      **     *****  ",
"                                                                                                                                ",
"                                                                                                                                ",
"                                                                                                                                ",
"    *     *       *       *       *      *****    *  *     *     *****    *      *   *    *****   ***    * *  *   ***     *     ",
" ******  *****   ****     ****    *****      *   ******  *  *        *   ******   *  *    *   *    *     * *  *           *     ",
"   **     *  *     *     *   *   *  *        *    *  *    *         *     *  *       *   *  * *  *****       *   *****    ***   ",
" ** *    *   *   *****      *       *        *       *       **    **     *         *        **    *        *      *      *  *  ",
"   **    *  **     *       *       *     *****      *     ***    **  *     ***     *        *     *       **      *       *     ",
"                                                                                                                                ",
"                                                                                                                                ",
"                                                                                                                                ",
"   *             *****     *         *      *    *       *****    **       *     *****    ****     *          *  *****    * *** ",
" *****    ***        *   *****       *    *  *   *  **       *   *  *    *****       *            *        * *     *     ***  * ",
"   *               * *       *      *     *  *   ***         *  *    *     *      * *    *****    *  *      *    ******   *  *  ",
"   *                **  ***** *    *     *    *  *          *         *  * * *     *             *   **    * **    *       *    ",
"  *      *****    **       *     **      *    *   ****    **            * **  *     *    ****    **** *  **         ***    *    ",
"                                                                                                                                ",
"                                                                                                                                ",
"                                                                                                                                ",
"   ****  ****     ***     *  *    * *    *       ******  *****   *****  *                                          *       *    ",
"      *     *             *  *    * *    *       *    *  *   *       *   *      * * *    *               ***      *         *   ",
"     *   *****   *****    *  *    * *    *       *    *      *   *****      *       *   *****    ***     ****   **   ** **   ** ",
"     *      *        *       *    * * *  *  **   *    *     *        *     *       *     *  *      *       *        *     *     ",
"  *****  ****      **      **    *  **   ***     ******    *       **   ***      **       *      ****    ***       *       *    ",
"                                                                                                                                ",
"                                                                                                                                ",
"                                                                                                                                "};
