/* XPM */
static char * pico8_font5x6_xpm[] = {
"129 67 3 1",
" 	c #020501",
".	c #5A544E",
"+	c #FDEFE9",
".................................................................................................................................",
".       .       .       .       .       .       .       .       .       .       .       .       .       .       .       .       .",
".       .  +++  .  + +  .       .   +   .       .  ++   .   +   .   ++  .  ++   .       .       .       .       .       .   ++  .",
".       .  +++  .  + +  .  + +  .  ++++ . ++  + . +     .   +   .  ++   .   ++  .   +   .   +   .       .       .       .   ++  .",
".       .  +++  .       . +++++ . + +   . ++ +  .  + +  .       .  ++   .   ++  . + + + .   +   .       .       .       .  ++   .",
".       .  +++  .       .  + +  .  +++  .   +   .  ++   .       .  ++   .   ++  .  +++  . +++++ .       .  +++  .       .  ++   .",
".       .       .       . +++++ .   + + .  + ++ . +  +  .       .  ++   .   ++  . + + + .   +   .   +   .       .       . ++    .",
".       .  +++  .       .  + +  . ++++  . +  ++ .  ++ + .       .   ++  .  ++   .   +   .   +   .  ++   .       .  ++   . ++    .",
".       .       .       .       .       .       .       .       .       .       .       .       .       .       .       .       .",
".       .       .       .       .       .       .       .       .       .       .       .       .       .       .       .       .",
".       .       .       .       .       .       .       .       .       .       .       .       .       .       .       .       .",
".................................................................................................................................",
".       .       .       .       .       .       .       .       .       .       .       .       .       .       .       .       .",
". +++++ . ++++  . +++++ . +++++ . ++ ++ . +++++ . +++++ . +++++ . +++++ . +++++ .       .       .       .       .       . ++++  .",
". ++ ++ .   ++  .    ++ .    ++ . ++ ++ . ++    . ++    .    ++ . ++ ++ . ++ ++ .  ++   .  ++   .   ++  .       .  ++   .    ++ .",
". ++ ++ .   ++  . +++++ .  ++++ . +++++ . +++++ . +++++ .   ++  . +++++ . +++++ .       .       .  ++   .  +++  .   ++  .    ++ .",
". ++ ++ .   ++  . ++    .    ++ .    ++ .    ++ . ++ ++ .  ++   . ++ ++ .    ++ .       .       . ++    .       .    ++ .  +++  .",
". ++ ++ .   ++  . ++    .    ++ .    ++ .    ++ . ++ ++ .  ++   . ++ ++ .    ++ .  ++   .  ++   .  ++   .  +++  .   ++  .       .",
". +++++ . +++++ . +++++ . +++++ .    ++ . +++++ . +++++ .  ++   . +++++ . +++++ .       . ++    .   ++  .       .  ++   .  ++   .",
".       .       .       .       .       .       .       .       .       .       .       .       .       .       .       .       .",
".       .       .       .       .       .       .       .       .       .       .       .       .       .       .       .       .",
".       .       .       .       .       .       .       .       .       .       .       .       .       .       .       .       .",
".................................................................................................................................",
".       .       .       .       .       .       .       .       .       .       .       .       .       .       .       .       .",
".  +++  .  +++  . ++++  .  +++  . ++++  .  ++++ .  ++++ .  ++++ . ++ ++ . ++++  . +++++ . ++ ++ . ++    . ++ ++ . ++++  .  +++  .",
". +   + . ++ ++ . ++ ++ . ++ ++ . ++ ++ . ++    . ++    . ++    . ++ ++ .  ++   .   ++  . ++ ++ . ++    . +++++ . ++ ++ . ++ ++ .",
". + +++ . ++ ++ . ++++  . ++    . ++ ++ . ++++  . ++++  . ++    . +++++ .  ++   .   ++  . +++   . ++    . +++++ . ++ ++ . ++ ++ .",
". + +++ . +++++ . ++ ++ . ++    . ++ ++ . ++    . ++    . ++ ++ . ++ ++ .  ++   .   ++  . ++ ++ . ++    . ++ ++ . ++ ++ . ++ ++ .",
". +     . ++ ++ . ++ ++ . ++ ++ . ++ ++ . ++    . ++    . ++ ++ . ++ ++ .  ++   .   ++  . ++ ++ . ++    . ++ ++ . ++ ++ . ++ ++ .",
".  ++++ . ++ ++ . ++++  .  +++  . ++++  .  ++++ . ++    .  ++++ . ++ ++ . ++++  . +++   . ++ ++ . +++++ . ++ ++ . ++ ++ .  +++  .",
".       .       .       .       .       .       .       .       .       .       .       .       .       .       .       .       .",
".       .       .       .       .       .       .       .       .       .       .       .       .       .       .       .       .",
".       .       .       .       .       .       .       .       .       .       .       .       .       .       .       .       .",
".................................................................................................................................",
".       .       .       .       .       .       .       .       .       .       .       .       .       .       .       .       .",
". ++++  .  +++  . ++++  .  ++++ . +++++ . ++ ++ . ++ ++ . ++ ++ . ++ ++ . ++ ++ . +++++ .  +++  .  ++   .  +++  .   +   .       .",
". ++ ++ . ++ ++ . ++ ++ . ++    .  ++   . ++ ++ . ++ ++ . ++ ++ . ++ ++ . ++ ++ .    ++ .  ++   .  ++   .   ++  .  + +  .       .",
". ++ ++ . ++ ++ . ++ ++ .  +++  .  ++   . ++ ++ . ++ ++ . ++ ++ .   +   . +++++ .   ++  .  ++   .   ++  .   ++  .       .       .",
". ++++  . ++ ++ . +++   .    ++ .  ++   . ++ ++ . ++ ++ . +++++ . ++ ++ .    ++ .  ++   .  ++   .   ++  .   ++  .       .       .",
". ++    . ++++  . ++ ++ .    ++ .  ++   . ++ ++ .  +++  . +++++ . ++ ++ .    ++ . ++    .  ++   .    ++ .   ++  .       .       .",
". ++    .  ++++ . ++ ++ . ++++  .  ++   .  +++  .   +   . ++ ++ . ++ ++ . ++++  . +++++ .  +++  .    ++ .  +++  .       . +++++ .",
".       .       .       .       .       .       .       .       .       .       .       .       .       .       .       .       .",
".       .       .       .       .       .       .       .       .       .       .       .       .       .       .       .       .",
".       .       .       .       .       .       .       .       .       .       .       .       .       .       .       .       .",
".................................................................................................................................",
".       .       .       .       .       .       .       .       .       .       .       .       .       .       .       .       .",
".  +    .       . ++    .       .    ++ .       .   +++ .       . ++    .  ++   .       . ++    .  ++   .       .       .       .",
".   +   .       . ++    .       .    ++ .       .  ++   .       . ++    .       .       . ++ ++ .  ++   .       .       .       .",
".       .  ++++ . ++++  .  ++++ .  ++++ .  +++  .  ++   .  ++++ . ++++  .  ++   .   ++  . ++ +  .  ++   .  + +  . ++++  .  ++++ .",
".       . ++ ++ . ++ ++ . ++    . ++ ++ . ++ ++ . +++++ . ++ ++ . ++ ++ .  ++   .   ++  . +++   .  ++   . +++++ . ++ ++ . ++ ++ .",
".       . ++ ++ . ++ ++ . ++    . ++ ++ . +++   .  ++   . ++ ++ . ++ ++ .  ++   .   ++  . ++ +  .  ++   . ++ ++ . ++ ++ . ++ ++ .",
".       . +++ + . +++++ .  ++++ .  ++++ .  ++++ .  ++   .  ++++ . ++ ++ .   ++  .   ++  . ++ ++ .   ++  . ++ ++ . ++ ++ . ++++  .",
".       .       .       .       .       .       .       .    ++ .       .       .   ++  .       .       .       .       .       .",
".       .       .       .       .       .       .       . ++++  .       .       . +++   .       .       .       .       .       .",
".       .       .       .       .       .       .       .       .       .       .       .       .       .       .       .       .",
".................................................................................................................................",
".       .       .       .       .       .       .       .       .       .       .       .       .       .       .       .       .",
".       .       .       .       .  ++   .       .       .       .       .       .       .       .       .       .       .       .",
".       .       .       .       .  ++   .       .       .       .       .       .       .   ++  .   +   .   ++  .  + +  .   +   .",
". ++++  .  ++++ .  +++  .  ++++ . ++++  . ++ ++ . ++ ++ . ++ ++ . ++ ++ . ++ ++ . +++++ .   +   .   +   .    +  . + +   . +++++ .",
". ++ ++ . ++ ++ . ++ ++ . +++   .  ++   . ++ ++ . ++ ++ . ++ ++ .  +++  . ++ ++ .   ++  .  ++   .   +   .    ++ .       .  +++  .",
". ++ ++ . ++ ++ . ++    .   +++ .  ++   . ++ ++ .  + +  . +++++ . ++ ++ . ++ ++ .  ++   .   +   .   +   .    +  .       .  + +  .",
". ++++  .  ++++ . ++    . ++++  .   ++  .  ++++ .   +   .  + +  . ++ ++ .  ++++ . +++++ .   ++  .   +   .   ++  .       .       .",
". ++    .    ++ .       .       .       .       .       .       .       .    ++ .       .       .       .       .       .       .",
". ++    .    ++ .       .       .       .       .       .       .       .  +++  .       .       .       .       .       .       .",
".       .       .       .       .       .       .       .       .       .       .       .       .       .       .       .       .",
"................................................................................................................................."};
