#define gray5_width 8
#define gray5_height 8
static char gray5_bits[] = {
   0x55, 0xff, 0x55, 0xff, 0x55, 0xff, 0x55, 0xff};
