#define gray6_width 8
#define gray6_height 8
static char gray6_bits[] = {
   0xdd, 0xff, 0x77, 0xff, 0xdd, 0xff, 0x77, 0xff};
